<svg width="64" height="64" viewBox="0 0 64 64" fill="none" xmlns="http://www.w3.org/2000/svg">
<g clip-path="url(#clip0_412_384)">
<circle cx="32" cy="32" r="32" fill="#FF6600"/>
<path fill-rule="evenodd" clip-rule="evenodd" d="M34 19C34 19.7403 33.5978 20.3866 33 20.7324V22H42C43.6569 22 45 23.3431 45 25V40C45 41.6569 43.6569 43 42 43H29L22 47L23 43H22C20.3431 43 19 41.6569 19 40V25C19 23.3431 20.3431 22 22 22H31V20.7324C30.4022 20.3866 30 19.7403 30 19C30 17.8954 30.8954 17 32 17C33.1046 17 34 17.8954 34 19ZM48.8284 28.4645C48.0783 27.5268 47.0609 27 46 27V37C47.0609 37 48.0783 36.4732 48.8284 35.5355C49.5786 34.5979 50 33.3261 50 32C50 30.6739 49.5786 29.4021 48.8284 28.4645ZM15.1716 28.4645C15.9217 27.5268 16.9391 27 18 27L18 37C16.9391 37 15.9217 36.4732 15.1716 35.5355C14.4214 34.5979 14 33.3261 14 32C14 30.6739 14.4214 29.4021 15.1716 28.4645ZM22 31C22 28.2386 24.2386 26 27 26H37C39.7614 26 42 28.2386 42 31C42 33.7614 39.7614 36 37 36H27C24.2386 36 22 33.7614 22 31ZM27 33C28.1046 33 29 32.1046 29 31C29 29.8954 28.1046 29 27 29C25.8954 29 25 29.8954 25 31C25 32.1046 25.8954 33 27 33ZM37 33C38.1046 33 39 32.1046 39 31C39 29.8954 38.1046 29 37 29C35.8954 29 35 29.8954 35 31C35 32.1046 35.8954 33 37 33ZM34.8284 38C34.8108 38.0498 34.7919 38.0992 34.7716 38.1481C34.6209 38.512 34.3999 38.8427 34.1213 39.1213C33.8427 39.3999 33.512 39.6209 33.148 39.7716C32.7841 39.9224 32.394 40 32 40C31.606 40 31.2159 39.9224 30.8519 39.7716C30.488 39.6209 30.1573 39.3999 29.8787 39.1213C29.6001 38.8427 29.3791 38.512 29.2284 38.1481C29.2081 38.0992 29.1892 38.0498 29.1716 38H30.2671C30.3544 38.1512 30.4613 38.2907 30.5853 38.4147C30.771 38.6005 30.9916 38.7479 31.2344 38.8484C31.4771 38.949 31.7373 39.0007 32 39.0007C32.2627 39.0007 32.5229 38.949 32.7656 38.8484C33.0084 38.7479 33.2289 38.6005 33.4147 38.4147C33.5387 38.2907 33.6456 38.1512 33.7329 38H34.8284Z" fill="white"/>
</g>
<defs>
<clipPath id="clip0_412_384">
<rect width="64" height="64" fill="white"/>
</clipPath>
</defs>
</svg>
