<?xml version="1.0" encoding="utf-8"?><svg xmlns="http://www.w3.org/2000/svg" xmlns:xlink="http://www.w3.org/1999/xlink">

<symbol viewBox="0 0 48 48" id="play" xmlns="http://www.w3.org/2000/svg">
	<g><path d="m37.324 20.026-22-12.412a4.685 4.685 0 0 0-4.711.036 4.528 4.528 0 0 0-2.28 3.938v24.824a4.528 4.528 0 0 0 2.28 3.938 4.687 4.687 0 0 0 4.711.036l22-12.412a4.543 4.543 0 0 0 0-7.948z" stroke="none"></path></g>
</symbol>

<symbol viewBox="0 0 24 24" id="mute" xmlns="http://www.w3.org/2000/svg">
	<g><path d="M17.77 3.332c-.835-.244-1.638.09-2.407.575-.773.487-1.711 1.26-2.885 2.228l-1.04.857c-.2.165-.28.23-.36.29a4.25 4.25 0 0 1-2.332.837c-.1.005-.204.006-.462.006h-.042c-.223 0-.394 0-.548.017a2.75 2.75 0 0 0-2.427 2.427 5.126 5.126 0 0 0-.017.548v1.23c0 .222 0 .394.017.548a2.75 2.75 0 0 0 2.427 2.427c.154.017.325.017.548.017h.042c.258 0 .363 0 .462.005a4.25 4.25 0 0 1 2.332.837c.08.06.16.126.36.29l1.04.857c1.174.968 2.112 1.74 2.885 2.228.77.486 1.572.82 2.407.576.277-.081.54-.205.778-.368.719-.49.972-1.32 1.087-2.223.115-.906.115-2.122.115-3.643V9.565c0-1.52 0-2.736-.115-3.643-.115-.903-.368-1.734-1.087-2.223a2.75 2.75 0 0 0-.778-.367z" stroke="none"></path></g>
</symbol>

<symbol viewBox="0 0 24 24" id="volume" xmlns="http://www.w3.org/2000/svg">
	<path d="M12.77 3.332c-.835-.244-1.638.09-2.407.575-.773.487-1.711 1.26-2.885 2.228l-1.04.857c-.2.165-.28.23-.36.29a4.25 4.25 0 0 1-2.332.837c-.1.005-.204.006-.462.006h-.042c-.223 0-.394 0-.548.017a2.75 2.75 0 0 0-2.427 2.427c-.017.153-.017.325-.017.548v1.23c0 .222 0 .394.017.548a2.75 2.75 0 0 0 2.427 2.427c.154.017.325.017.548.017h.042c.258 0 .363 0 .462.005a4.25 4.25 0 0 1 2.332.837c.08.06.16.126.36.29l1.04.857c1.174.968 2.112 1.74 2.885 2.228.77.486 1.572.82 2.407.576.277-.081.54-.205.778-.368.719-.49.972-1.32 1.087-2.223.115-.906.115-2.122.115-3.643V9.565c0-1.52 0-2.736-.115-3.643-.115-.903-.368-1.734-1.087-2.223a2.75 2.75 0 0 0-.778-.367zM19.53 4.201a.75.75 0 1 0-1.06 1.061l.7.7c.608.609.877.879 1.08 1.12a7.25 7.25 0 0 1 0 9.299c-.203.242-.472.512-1.08 1.12l-.7.7a.75.75 0 0 0 1.06 1.061l.736-.736c.564-.563.884-.883 1.135-1.184a8.75 8.75 0 0 0 0-11.221c-.251-.3-.571-.62-1.135-1.184z" stroke="none"></path><path d="M17.53 7.201a.75.75 0 1 0-1.06 1.061l.4.4.107.108a4.25 4.25 0 0 1 0 5.924l-.107.107-.4.4a.75.75 0 0 0 1.06 1.061l.406-.405.117-.118a5.75 5.75 0 0 0 0-8.015l-.117-.117z" stroke="none"></path>
</symbol>

<symbol viewBox="0 0 1.707 1.707" id="minimize" xmlns="http://www.w3.org/2000/svg">
	<g><rect width="1.707" height=".271" y=".718" rx=".135" stroke="none"></rect></g>
</symbol>

<symbol viewBox="0 0 320.591 320.591" id="close" xmlns="http://www.w3.org/2000/svg">
	<g><path d="M30.391 318.583a30.37 30.37 0 0 1-21.56-7.288c-11.774-11.844-11.774-30.973 0-42.817L266.643 10.665c12.246-11.459 31.462-10.822 42.921 1.424 10.362 11.074 10.966 28.095 1.414 39.875L51.647 311.295a30.366 30.366 0 0 1-21.256 7.288z" stroke="none"></path>
	<path d="M287.9 318.583a30.37 30.37 0 0 1-21.257-8.806L8.83 51.963C-2.078 39.225-.595 20.055 12.143 9.146c11.369-9.736 28.136-9.736 39.504 0l259.331 257.813c12.243 11.462 12.876 30.679 1.414 42.922-.456.487-.927.958-1.414 1.414a30.368 30.368 0 0 1-23.078 7.288z" stroke="none"></path></g>
</symbol>


</svg>