<svg width="64" height="64" viewBox="0 0 64 64" fill="none" xmlns="http://www.w3.org/2000/svg">
<g clip-path="url(#clip0_416_437)">
<circle cx="32" cy="32" r="32" fill="#FF6600"/>
<path d="M32.0629 17C23.8298 17 17.1284 23.6684 17.1249 31.8644C17.124 34.4844 17.812 37.0417 19.1192 39.2958L17 47L24.9187 44.9327C27.1007 46.1171 29.5569 46.7411 32.0568 46.7419H32.0629C40.295 46.7419 46.9965 40.0726 47 31.8766C47.0017 27.9046 45.4493 24.1698 42.629 21.3604C39.8087 18.5502 36.0584 17.0017 32.0629 17ZM32.0629 44.2315H32.0576C29.8302 44.2315 27.6447 43.6345 25.7386 42.5092L25.2854 42.2416L20.5869 43.4685L21.8408 38.9091L21.5457 38.4416C20.3032 36.4743 19.6465 34.2002 19.6474 31.8662C19.65 25.0535 25.2199 19.5113 32.0681 19.5113C35.3844 19.5122 38.5015 20.7991 40.8451 23.1349C43.1895 25.4698 44.4792 28.5746 44.4783 31.8757C44.4757 38.6884 38.9058 44.2315 32.0629 44.2315ZM38.8726 34.9779C38.4998 34.792 36.6644 33.8935 36.3221 33.7692C35.9799 33.6449 35.731 33.5832 35.4822 33.9552C35.2333 34.3271 34.5182 35.1639 34.3008 35.4115C34.0834 35.6601 33.8651 35.6905 33.4922 35.5045C33.1194 35.3186 31.9162 34.9258 30.4912 33.6606C29.3814 32.6761 28.6322 31.4595 28.4148 31.0876C28.1974 30.7157 28.3912 30.5149 28.579 30.3299C28.7466 30.1639 28.9518 29.8962 29.1387 29.679C29.3255 29.4618 29.3875 29.3071 29.5115 29.0586C29.6355 28.8109 29.5735 28.5937 29.4801 28.4077C29.3866 28.2218 28.6401 26.3935 28.3292 25.6496C28.0263 24.9258 27.7189 25.0231 27.4893 25.0118C27.2718 25.0005 27.023 24.9988 26.7741 24.9988C26.5253 24.9988 26.121 25.0918 25.7787 25.4637C25.4365 25.8356 24.4725 26.7341 24.4725 28.5624C24.4725 30.3907 25.8102 32.1573 25.9962 32.4049C26.183 32.6526 28.6279 36.4048 32.372 38.0132C33.2626 38.3956 33.9576 38.6241 34.4999 38.7953C35.394 39.0777 36.2078 39.0377 36.8504 38.9421C37.5673 38.8352 39.0586 38.0436 39.3695 37.1755C39.6803 36.3083 39.6803 35.5645 39.5869 35.4089C39.4934 35.2543 39.2446 35.1613 38.8718 34.9753L38.8726 34.9779Z" fill="white"/>
</g>
<defs>
<clipPath id="clip0_416_437">
<rect width="64" height="64" fill="white"/>
</clipPath>
</defs>
</svg>
